<svg t="1718872357738" class="icon" viewBox="0 0 1024 1024" version="1.1" xmlns="http://www.w3.org/2000/svg"
p-id="7004" width="70" height="60">
  <path d="M462.038 270.297L344.81 132.972h-132.3l116.67 137.325h132.86z m343.313 0l-116.67-137.325H556.379L673.05 270.297h132.301z m-171.935 0L516.745 132.972H384.444l116.67 137.325h132.302z m221.618-137.325H727.757l116.67 137.325h61.964v-85.968c0.559-29.028-21.77-51.357-51.357-51.357z m-682.16 0h-5.024c-29.029 0-51.358 22.329-51.358 51.357v85.968h173.61L172.875 132.972z m-56.382 704.49c0 29.027 22.33 51.357 51.358 51.357h687.184c29.028 0 51.357-22.33 51.357-51.358V304.907H116.492v532.554z m274.65-377.924c0-29.028 24.005-42.984 51.358-42.984 8.374 0 18.98 1.675 27.353 6.699l195.94 113.32c34.61 18.98 34.61 66.989 0 85.969l-195.94 113.32c-8.373 5.025-17.305 6.7-27.353 6.7-27.353 0-51.357-13.956-51.357-42.984v-240.04z m0 0" 
  fill="#515151" p-id="7005" data-spm-anchor-id="a313x.search_index.0.i39.241f3a81KYCTb8" class=""></path>
</svg>