<svg t="1718941617639" class="icon" viewBox="0 0 1142 1024" version="1.1" xmlns="http://www.w3.org/2000/svg" p-id="15291" data-spm-anchor-id="a313x.search_index.0.i3.34973a81O15CcU" width="128" height="128">
  <path d="M907.635014 993.79942H235.304812a68.800928 68.800928 0 0 1-64.222609-44.002319C96.708638 957.69971 51.942029 967.724522 51.942029 978.69913 51.942029 1003.705507 282.816928 1024 567.652174 1024c284.835246 0 515.710145-20.294493 515.710145-45.30087 0-10.611014-41.902377-20.405797-111.734725-28.197101a68.674783 68.674783 0 0 1-63.99258 43.297391z" fill="#eee" p-id="15292"></path>
  <path d="M1081.900522 608.50829c14.988986-11.033971 14.988986-34.400464 14.988985-54.323942 0-27.046957 0-60.735072-37.724753-60.735073-1.78829 0-3.57658 0.118725-5.238725 0.23745l-44.640464-182.910145 19.166609-60.378899c0-16.725333-13.690435-30.363826-30.475131-30.363826h-22.854492v-63.933217L818.354087 0h-582.195942c-37.843478 0-68.563478 30.601275-68.563478 68.326029v151.826551h-22.854493c-16.777275 0-30.46771 13.645913-30.46771 30.371246l19.047884 60.727652-44.759189 183.503768c-1.550841-0.118725-3.094261-0.237449-4.645101-0.237449h-0.118725c-37.019826 0-37.019826 33.094493-37.019826 59.659131 0 19.337275 0.118725 41.998841 14.284058 53.025391L0 857.84487c0 16.725333 13.690435 30.363826 30.47513 30.363826h137.126957v30.363826c0 8.422029 1.662145 16.487884 4.526377 24.07884a68.452174 68.452174 0 0 0 64.037101 44.247189h670.393507a68.489275 68.489275 0 0 0 63.807073-43.534841 69.068058 69.068058 0 0 0 4.756406-24.783768V888.208696h137.126956c16.784696 0 30.47513-13.638493 30.475131-30.363826l-60.824116-249.33658zM115.45971 585.609275a44.447536 44.447536 0 0 1-31.662377 13.04487c-17.734493 0-21.303652-8.778203-21.77855-38.437102v-6.040115c0-34.400464 2.856812-44.484638 21.77855-44.484638h1.187247c24.049159 0.593623 43.571942 20.168348 43.571942 44.358493-0.118725 11.983768-4.645101 23.136464-13.096812 31.558492z m791.099362 386.099942H236.165565c-21.311072 0-39.757913-12.577391-48.328348-30.72a52.424348 52.424348 0 0 1-5.001275-22.424116V68.318609c0-29.295304 23.923014-53.136696 53.329623-53.136696h575.881276l3.09426 3.086841v-10.685218l152.368232 151.833971h-10.714898l3.094261 3.086841v756.068174a53.708058 53.708058 0 0 1-5.35745 23.129043 53.351884 53.351884 0 0 1-47.972174 30.015073z m175.09658-411.366029v0.712348c0 1.78087 0 3.435594-0.118724 5.097739v0.23745a63.814493 63.814493 0 0 1-0.23745 4.979014v0.118725c-1.187246 20.049623-5.713623 28.115478-22.134724 28.115478-25.236406 0-45.708986-20.405797-45.708986-45.553159 0-24.553739 19.641507-44.595942 44.03942-45.427015 0.593623 0 1.068522-0.118725 1.669566-0.118725 20.591304 0 22.498319 12.458667 22.498318 45.54574v6.292405z" fill="#8a8a8a" p-id="15293" data-spm-anchor-id="a313x.search_index.0.i2.34973a81O15CcU" class=""></path>
  <path d="M893.625507 159.180058c-41.894957 0-75.946667-34.05913-75.946666-75.968928V17.92742L814.592 14.84058H240.506435c-29.310145 0-53.166377 23.856232-53.166377 53.181217v850.854957c0 8.073275 1.78087 15.671652 4.986435 22.438956A53.055072 53.055072 0 0 0 240.506435 972.057971h668.300985c20.99942 0 39.16429-12.228638 47.823768-30.029913 3.443014-7.004754 5.342609-14.84058 5.342609-23.151304V162.266899l-3.08684-3.086841h-65.26887zM89.674203 509.833275h-1.187246C69.632 509.833275 66.782609 519.791304 66.782609 554.340174v6.054956c0 3.205565 0.118725 6.173681 0.237449 8.904348v0.474899c0.118725 2.730667 0.356174 5.105159 0.593623 7.360927v0.474899c0.237449 2.255768 0.593623 4.274087 0.949797 6.054956 0 0.118725 0 0.237449 0.118725 0.356174 0.474899 1.78087 0.949797 3.443014 1.54342 4.979015 3.086841 7.242203 8.422029 9.854145 18.157449 9.854145a44.224928 44.224928 0 0 0 31.558493-13.05971 43.594203 43.594203 0 0 0 12.933565-31.454609 44.02458 44.02458 0 0 0-43.186087-44.506899z m971.25658-1.187246c-0.593623 0-1.068522 0.118725-1.662145 0.118725a45.545739 45.545739 0 0 0-43.905855 45.464116 45.582841 45.582841 0 0 0 45.560579 45.57542c9.616696 0 15.070609-2.849391 18.276174-9.253102v0.111305c0.118725-0.111304 0.118725-0.348754 0.23745-0.593623 0.356174-0.593623 0.593623-1.417275 0.831072-2.129624a52.238841 52.238841 0 0 0 0.712348-2.255768c0.237449-0.712348 0.356174-1.54342 0.593623-2.374492 0.237449-0.949797 0.356174-2.018319 0.474899-3.086841l0.356173-2.374493c0.237449-1.899594 0.356174-4.036638 0.593624-6.292406v-0.118724c0.118725-1.54342 0.118725-3.205565 0.237449-4.986435v-0.237449c0-1.662145 0.118725-3.32429 0.118725-5.10516v-6.878608c0-33.005449-1.899594-45.582841-22.424116-45.582841z" fill="#FFFFFF" p-id="15294"></path>
  <path d="M972.057971 163.246377L816.231884 7.42029v10.959768L961.098203 163.246377z" fill="#DCE4EB" p-id="15295"></path>
  <path d="M815.400812 14.84058v65.766029c0 42.221449 34.207536 76.53287 76.273159 76.532869H957.217391L815.400812 14.84058zM429.389913 302.547478A36.121971 36.121971 0 0 0 393.275362 338.662029a36.151652 36.151652 0 0 0 35.869681 36.114551c19.901217 0.118725 35.988406-16.027826 36.114551-35.995826a36.025507 36.025507 0 0 0-35.869681-36.233276z m283.870609 0a36.121971 36.121971 0 0 0-36.107131 36.114551 36.151652 36.151652 0 0 0 35.869681 36.114551c19.901217 0.118725 35.988406-16.027826 36.114551-35.995826a36.025507 36.025507 0 0 0-35.877101-36.233276z m-53.270261 170.280812H488.381217c-2.025739 0-4.051478 0.838493-5.483594 2.270609-1.484058 1.484058-2.255768 3.532058-2.151884 5.624579 1.558261 49.270725 41.241971 89.088 90.342029 90.638841h3.101681c50.16858 0 91.64058-40.062145 93.310145-90.638841a7.761623 7.761623 0 0 0-2.144464-5.624579 7.368348 7.368348 0 0 0-5.364869-2.270609z m-88.301449 83.225971c-20.146087-0.593623-38.259014-8.97113-51.726841-22.119884 9.297623-12.080232 28.835246-20.450319 51.481971-20.450319 24.672464 0 45.642203 9.928348 53.626435 23.678145-14.417623 12.436406-33.131594 19.611826-53.388986 18.892058z" fill="#ccc" p-id="15296" data-spm-anchor-id="a313x.search_index.0.i4.34973a81O15CcU" class=""></path>
  <path d="M296.811594 410.193623c0 8.69658 6.878609 16.732754 18.053565 21.073623 11.167536 4.35571 24.932174 4.35571 36.107131 0 11.167536-4.34087 18.053565-12.377043 18.053565-21.073623s-6.886029-16.732754-18.053565-21.073623c-11.174957-4.34829-24.932174-4.34829-36.107131 0-11.174957 4.34087-18.053565 12.377043-18.053565 21.073623z m476.887189 0c0 13.445565 16.168812 24.338551 36.10713 24.338551S845.913043 423.639188 845.913043 410.193623c0-13.438145-16.168812-24.338551-36.10713-24.338551s-36.10713 10.900406-36.10713 24.338551zM571.362319 513.580522c-22.639304 0-42.184348 8.429449-51.481971 20.598724 13.467826 13.260058 31.699478 21.689507 51.71942 22.290551 20.257391 0.727188 39.082667-6.626319 53.388986-19.033043-7.984232-13.861101-28.961391-23.856232-53.626435-23.856232z" fill="#eee" p-id="15297" data-spm-anchor-id="a313x.search_index.0.i5.34973a81O15CcU" class=""></path>
</svg>